<svg version="1.1" xmlns="http://www.w3.org/2000/svg" xmlns:xlink="http://www.w3.org/1999/xlink" width="24px" height="24px" viewBox="0,0,256,256"><g fill="#ffffff" fill-rule="nonzero" stroke="none" stroke-width="1" stroke-linecap="butt" stroke-linejoin="miter" stroke-miterlimit="10" stroke-dasharray="" stroke-dashoffset="0" font-family="none" font-weight="none" font-size="none" text-anchor="none" style="mix-blend-mode: normal"><g transform="translate(0.01103,0.00264) scale(10.66667,10.66667)"><path d="M2.803,0.003c-0.025,0.027 0.03,0.12 0.18,0.297c0.098,0.113 0.16,0.233 0.233,0.444c0.055,0.16 0.12,0.316 0.145,0.347c0.036,0.049 0.04,0.037 0.042,-0.11v-0.163l0.218,0.3c0.331,0.457 0.537,0.7 0.675,0.798c0.07,0.046 0.113,0.092 0.095,0.098c-0.049,0.015 -0.478,-0.221 -0.678,-0.374c-0.06508,-0.05442 -0.13582,-0.10169 -0.211,-0.141c-0.015,0 -0.065,-0.046 -0.107,-0.102c-0.0597,-0.07241 -0.12901,-0.13634 -0.206,-0.19c-0.171,-0.119 -0.352,-0.29 -0.395,-0.373c-0.031,-0.062 -0.126,-0.102 -0.126,-0.054c0,0.05 0.245,0.377 0.435,0.58c0.583,0.622 1.178,0.932 2.769,1.428c0.337,0.105 0.635,0.209 0.662,0.233c0.03099,0.02419 0.06873,0.03816 0.108,0.04c0.03644,0.00229 0.07194,0.01253 0.104,0.03c0.04,0.025 0.036,0.032 -0.01,0.032c-0.037,0 -0.052,0.018 -0.046,0.055c0.01,0.055 0.16,0.104 0.448,0.144c0.129,0.018 0.16,0.012 0.16,-0.024c0,-0.05 -0.09,-0.083 -0.221,-0.083c-0.05,0 -0.086,-0.016 -0.086,-0.03c0,-0.02 0.03,-0.026 0.07,-0.02c0.037,0.01 0.166,0.03 0.282,0.052c0.276,0.046 0.353,0.077 0.353,0.135c0,0.065 0.083,0.092 0.138,0.046c0.03,-0.027 0.046,-0.027 0.046,-0.003c0,0.019 0.015,0.034 0.03,0.034c0.019,0 0.031,-0.021 0.031,-0.046c0,-0.058 -0.03,-0.058 0.485,0.021c0.306,0.046 0.42,0.077 0.374,0.093c-0.098,0.036 -0.043,0.085 0.095,0.085c0.07,0 0.12,0.016 0.12,0.034c0,0.028 0.07,0.03 0.244,0.018c0.16,-0.012 0.252,-0.009 0.264,0.013c0.013,0.018 0.065,0.027 0.12,0.018c0.052,-0.01 0.196,0.003 0.312,0.025c0.307,0.058 1.132,0.104 2.977,0.169c2.983,0.104 5.157,0.327 5.973,0.615c0.362,0.13 0.907,0.405 1.009,0.51c0.16,0.168 0.208,0.306 0.19,0.533c-0.01047,0.0743 -0.01047,0.1497 0,0.224c0.089,0.089 0.285,-0.086 0.285,-0.255c0,-0.033 0.064,-0.116 0.147,-0.187c0.33,-0.29 0.38,-0.454 0.343,-1.119c-0.024,-0.448 -0.03,-0.478 -0.23,-1.134c-0.26,-0.859 -0.321,-0.99 -0.634,-1.322c-0.368,-0.386 -0.702,-0.607 -1.16,-0.763c-0.17431,-0.06062 -0.34767,-0.12396 -0.52,-0.19c-0.249,-0.098 -0.427,-0.141 -0.788,-0.193c-0.512,-0.074 -1.613,-0.126 -1.956,-0.092c-0.123,0.012 -0.614,0 -1.15,-0.034c-0.61,-0.033 -0.984,-0.046 -1.073,-0.027c-0.09755,0.01658 -0.19611,0.0266 -0.295,0.03c-0.10581,-0.00686 -0.21004,0.02837 -0.29,0.098c-0.126,0.092 -0.215,0.12 -0.565,0.178c-0.564,0.092 -0.929,0.165 -1.082,0.218c-0.12,0.043 -0.316,0.07 -0.62,0.089c-0.83,0.052 -1.302,0.095 -1.407,0.129c-0.07,0.021 -0.34,0.027 -0.79,0.018c-0.55,-0.012 -0.69,-0.006 -0.718,0.028c-0.028,0.03 -0.015,0.04 0.058,0.04c0.181,0 1.797,0.125 1.812,0.14c0.016,0.016 -0.273,0.003 -1.097,-0.049c-0.15688,-0.01487 -0.31463,-0.01821 -0.472,-0.01c-0.059,0.038 -0.494,0.032 -0.911,-0.011c-0.49623,-0.04895 -0.98822,-0.13418 -1.472,-0.255c-0.21146,-0.05144 -0.4269,-0.08489 -0.644,-0.1c-0.328,-0.016 -0.677,-0.13 -1.171,-0.378c-0.325,-0.16 -0.361,-0.167 -0.361,-0.036v0.101l-0.099,-0.122c-0.05882,-0.07054 -0.10916,-0.14773 -0.15,-0.23c-0.055,-0.117 -0.26,-0.328 -0.291,-0.3zM3.26,3.19c-0.57,0.027 -1.094,0.47 -1.47,1.263c-0.224,0.475 -0.264,0.66 -0.279,1.291c-0.012,0.497 -0.006,0.598 0.064,1.012c0.15,0.861 0.19,0.962 0.506,1.272c0.334,0.331 1.165,0.785 1.628,0.89c0.16,0.033 0.347,0.076 0.414,0.094c0.258,0.065 0.61,0.089 1.487,0.101c0.843,0.015 0.914,0.013 1.027,-0.043c0.08,-0.04 0.249,-0.07 0.49,-0.088c0.203,-0.019 0.417,-0.046 0.476,-0.065c0.09072,-0.01946 0.18321,-0.02951 0.276,-0.03c0.095,0 0.19,-0.019 0.208,-0.037c0.074,-0.074 0.423,-0.15 0.757,-0.169c0.187,-0.01 0.362,-0.027 0.393,-0.043c0.101,-0.055 0.052,-0.086 -0.113,-0.067c-0.07393,0.0113 -0.14946,0.00583 -0.221,-0.016c-0.05,-0.03 -0.034,-0.033 0.082,-0.036c0.077,0 0.227,-0.01 0.335,-0.022c0.165,-0.015 0.184,-0.025 0.138,-0.058c-0.114,-0.083 -0.015,-0.104 0.493,-0.104c0.457,0 0.59,-0.022 0.454,-0.074c-0.08303,-0.01594 -0.16747,-0.02331 -0.252,-0.022c-0.113,-0.003 -0.162,-0.012 -0.113,-0.015c0.052,-0.006 0.163,-0.027 0.252,-0.043c0.086,-0.018 0.625,-0.04 1.196,-0.046c0.57,-0.006 1.054,-0.012 1.075,-0.015c0.028,0 0.034,-0.022 0.022,-0.061c-0.012,-0.044 -0.006,-0.062 0.027,-0.062c0.025,0 0.083,-0.049 0.13,-0.107c0.091,-0.12 0.116,-0.114 0.155,0.043l0.028,0.101l0.22,0.01c0.176,0.006 0.234,-0.004 0.292,-0.047c0.05596,-0.03677 0.1184,-0.06256 0.184,-0.076l0.114,-0.022l-0.019,0.178c-0.018,0.144 -0.015,0.172 0.022,0.16c0.07252,-0.02173 0.14592,-0.04041 0.22,-0.056l0.175,-0.033l-0.067,-0.09c-0.05301,-0.05547 -0.12005,-0.09555 -0.194,-0.116l-0.122,-0.03l0.184,-0.007c0.09998,-0.00312 0.20002,-0.00312 0.3,0c0.065,0.003 0.114,-0.009 0.114,-0.027c0,-0.018 -0.018,-0.034 -0.037,-0.037c-0.021,-0.003 -0.089,-0.006 -0.147,-0.01c-0.07535,-0.01173 -0.14809,-0.03643 -0.215,-0.073c-0.04806,-0.03261 -0.1021,-0.05538 -0.159,-0.067c-0.03,0 -0.055,-0.016 -0.055,-0.03c0,-0.022 0.092,-0.031 0.254,-0.025c0.248,0.009 0.252,0.009 0.26,0.092c0.013,0.095 0.013,0.095 0.08,0.067c0.02338,-0.00886 0.03662,-0.03363 0.031,-0.058c-0.018,-0.049 0.037,-0.09 0.083,-0.059c0.018,0.01 0.092,0.022 0.16,0.028c0.165,0.01 0.971,0.074 1.18,0.095c0.11,0.012 0.159,0.03 0.159,0.062c0,0.052 0.037,0.054 0.083,0.008c0.024,-0.024 0.144,-0.02 0.435,0.007c0.356,0.034 0.402,0.043 0.402,0.095c0,0.036 0.021,0.055 0.07,0.058c0.037,0 0.166,0.012 0.282,0.025c0.12,0.012 0.233,0.018 0.252,0.009c0.021,-0.007 0.089,-0.098 0.15,-0.202c0.12,-0.2 0.221,-0.326 0.26,-0.326c0.016,0 0.019,0.022 0.01,0.047c-0.013,0.024 -0.003,0.046 0.015,0.046c0.022,0 0.034,0.024 0.028,0.052c-0.006,0.036 0.021,0.058 0.092,0.073c0.113,0.025 0.165,0.058 0.089,0.058c-0.028,0 -0.053,0.019 -0.053,0.04c0,0.022 0.181,0.099 0.445,0.184c0.282,0.095 0.444,0.163 0.444,0.19c0,0.03 -0.095,0.01 -0.358,-0.08c-0.625,-0.214 -0.898,-0.26 -0.898,-0.153c0,0.046 0.049,0.068 0.285,0.123c0.153,0.037 0.3,0.064 0.325,0.064c0.04793,0.01484 0.09199,0.04012 0.129,0.074c0.049,0.043 0.294,0.144 0.563,0.233c0.273,0.092 0.516,0.19 0.565,0.233c0.05877,0.04725 0.1237,0.08628 0.193,0.116c0.193,0.083 0.47,0.331 0.678,0.61c0.3,0.405 0.297,0.39 0.131,0.39c-0.076,0 -0.294,-0.022 -0.484,-0.046c-0.17598,-0.02328 -0.35277,-0.03996 -0.53,-0.05c-0.215,-0.005 -1.969,0.028 -2.625,0.05l-0.445,0.015l-0.07,-0.15c-0.06962,-0.12137 -0.1554,-0.23272 -0.255,-0.331c-0.174,-0.172 -0.183,-0.175 -0.223,-0.117c-0.025,0.034 -0.117,0.163 -0.206,0.282l-0.162,0.224l-0.2,0.007c-0.11,0 -0.223,0.003 -0.25,0c-0.068,-0.006 -0.071,0.03 -0.01,0.144l0.043,0.085l-0.313,0.022c-0.852,0.058 -2.66,0.282 -3.268,0.408c-0.22435,0.03452 -0.45101,0.05191 -0.678,0.052c-0.46,0.006 -0.502,0.018 -0.794,0.187c-0.052,0.027 -0.092,0.034 -0.129,0.015c-0.033,-0.021 -0.064,-0.015 -0.085,0.012c-0.034,0.04 -0.144,0.058 -0.954,0.144c-0.178,0.019 -0.475,0.059 -0.665,0.09c-0.331,0.054 -0.35,0.054 -0.524,0c-0.184,-0.059 -0.758,-0.136 -1.248,-0.17l-0.276,-0.021l-0.162,0.147c-0.10383,0.09407 -0.19951,0.19677 -0.286,0.307c-0.092,0.125 -0.14,0.166 -0.2,0.166c-0.125,0 -1.244,0.174 -2.056,0.321c-0.877,0.16 -1.208,0.19 -1.466,0.138c-0.266,-0.055 -0.27,-0.058 -0.257,-0.395c0.012,-0.285 0.009,-0.294 -0.065,-0.331c-0.168,-0.086 -0.33,-0.037 -0.551,0.162c-0.05523,0.04791 -0.12701,0.07232 -0.2,0.068c-0.10445,0.00565 -0.2066,0.03289 -0.3,0.08l-0.181,0.082l0.009,0.16c0.00797,0.07308 0.00047,0.14701 -0.022,0.217c-0.024,0.037 -0.03,0.2 -0.018,0.47c0.012,0.327 0.003,0.447 -0.04,0.606l-0.052,0.197l0.147,0.208c0.295,0.414 0.503,0.73 0.503,0.763c0,0.019 0.092,0.117 0.208,0.218c0.506,0.445 0.721,0.565 1.218,0.669c0.527,0.113 0.613,0.107 0.941,-0.068c0.13789,-0.07305 0.26848,-0.15911 0.39,-0.257c0.08,-0.074 0.306,-0.194 0.742,-0.387c0.677,-0.3 0.763,-0.334 0.763,-0.294c0,0.012 0.043,0.426 0.095,0.913c0.107,1.025 0.14,2.006 0.095,2.76c-0.037,0.592 -0.064,0.674 -0.481,1.46c-0.647,1.216 -1.423,2.394 -2.008,3.047c-0.105,0.12 -0.264,0.325 -0.353,0.46c-0.169,0.254 -0.481,0.595 -0.871,0.944c-0.132,0.12 -0.218,0.22 -0.208,0.245c0.009,0.025 0.104,0.074 0.211,0.11c0.105,0.04 0.206,0.083 0.224,0.099c0.049,0.049 0.11,0.03 0.337,-0.092l0.22,-0.123l0.09,0.062c0.107,0.07 0.3,0.076 0.463,0.015c0.064,-0.025 0.193,-0.052 0.288,-0.058c0.19,-0.019 0.313,-0.07 0.512,-0.224c0.06524,-0.05057 0.13772,-0.09102 0.215,-0.12c0.089,-0.018 0.858,-0.797 1.27,-1.288c0.128,-0.15 0.45,-0.49 0.72,-0.754c0.377,-0.374 0.545,-0.515 0.76,-0.644c0.31,-0.183 0.555,-0.407 0.585,-0.539c0.02334,-0.07363 0.05417,-0.14466 0.092,-0.212c0.095,-0.162 0.203,-0.579 0.175,-0.683c-0.02578,-0.08085 -0.05962,-0.15891 -0.101,-0.233c-0.08,-0.141 -0.086,-0.19 -0.101,-0.583c-0.028,-0.69 -0.138,-1.051 -0.488,-1.594c-0.202,-0.313 -0.251,-0.423 -0.377,-0.828c-0.208,-0.696 -0.27,-1.35 -0.165,-1.861c0.049,-0.255 0.073,-0.288 0.279,-0.408c0.107,-0.064 0.248,-0.165 0.316,-0.227l0.125,-0.116l0.595,-0.068c0.328,-0.04 0.696,-0.088 0.812,-0.113c0.12,-0.025 0.383,-0.08 0.586,-0.12c0.205,-0.042 0.497,-0.116 0.647,-0.165c0.15,-0.052 0.362,-0.114 0.472,-0.138c0.215,-0.05 0.947,-0.12 0.972,-0.095c0.009,0.01 0.018,0.448 0.015,0.975c0,0.828 -0.009,1.052 -0.08,1.662c-0.10593,0.83801 -0.16402,1.68138 -0.174,2.526c-0.028,1.146 -0.037,1.198 -0.224,1.333c-0.135,0.098 -0.273,0.08 -0.68,-0.1c-0.31527,-0.13514 -0.6323,-0.26616 -0.951,-0.393c-0.33864,-0.13699 -0.67313,-0.28406 -1.003,-0.441c-0.233,-0.117 -0.423,-0.203 -0.423,-0.194c0,0.01 0.117,0.16 0.26,0.334c0.145,0.175 0.261,0.325 0.261,0.334c0,0.01 -0.027,0.02 -0.064,0.02c-0.055,0 -0.058,0.005 -0.015,0.063c0.027,0.04 0.036,0.101 0.027,0.166c-0.012,0.083 -0.003,0.11 0.058,0.15c0.04,0.028 0.105,0.104 0.145,0.172c0.03728,0.06586 0.0845,0.12556 0.14,0.177c0.05276,0.04687 0.09767,0.10191 0.133,0.163c0.03,0.058 0.134,0.166 0.233,0.24c0.08114,0.0571 0.15213,0.12741 0.21,0.208c0.02,0.046 0.109,0.113 0.213,0.165c0.242,0.123 0.597,0.436 0.655,0.574c0.034,0.085 0.102,0.153 0.298,0.282c0.157,0.104 0.432,0.343 0.739,0.647c0.558,0.551 0.589,0.57 1.042,0.542c0.295,-0.021 0.442,-0.076 0.617,-0.236c0.07,-0.064 0.156,-0.132 0.187,-0.15c0.06509,-0.05766 0.12076,-0.12514 0.165,-0.2c0.05033,-0.08452 0.11575,-0.15909 0.193,-0.22c0.129,-0.077 0.359,-0.402 0.359,-0.506c0,-0.153 0.058,-0.251 0.26,-0.441c0.178,-0.166 0.215,-0.221 0.326,-0.494c0.172,-0.417 0.232,-0.687 0.288,-1.223c0.067,-0.662 0.061,-1.462 -0.015,-1.962c-0.126,-0.816 -0.604,-3.088 -0.748,-3.542c-0.12,-0.377 -0.233,-0.867 -0.233,-1.008c0,-0.034 0.064,-0.037 0.315,-0.022c0.23,0.016 0.41,0.01 0.675,-0.03c0.312,-0.046 0.42,-0.05 0.75,-0.019c0.212,0.019 0.393,0.04 0.4,0.05c0.024,0.02 0.496,1.557 0.576,1.87c0.165,0.64 0.169,0.686 0.202,2.299c0.016,0.843 0.03,1.843 0.037,2.223c0.006,0.64 0.012,0.71 0.089,0.993c0.098,0.359 0.205,0.592 0.426,0.91c0.089,0.127 0.224,0.347 0.3,0.488c0.154,0.285 0.353,0.521 0.61,0.717c0.338,0.261 0.666,0.473 0.868,0.565c0.243,0.11 0.439,0.285 0.632,0.558c0.08,0.11 0.193,0.26 0.254,0.337c0.062,0.077 0.138,0.193 0.172,0.26c0.058,0.123 0.077,0.136 0.408,0.234c0.153,0.046 0.576,0.055 0.812,0.015c0.132,-0.022 0.181,-0.052 0.393,-0.258c0.285,-0.276 0.42,-0.469 0.42,-0.607c0,-0.214 0.03,-0.279 0.156,-0.328c0.08,-0.03 0.12,-0.067 0.12,-0.104c0,-0.193 -0.203,-0.972 -0.307,-1.175c-0.068,-0.134 -0.947,-1.324 -1.686,-2.283c-0.785,-1.015 -1.061,-1.457 -1.224,-1.935c-0.052,-0.163 -0.248,-1.276 -0.37,-2.143c-0.10008,-0.65947 -0.27833,-1.30468 -0.531,-1.922c-0.092,-0.233 -0.156,-0.423 -0.141,-0.423c0.074,0 1.653,0.441 1.745,0.487c0.058,0.03 0.297,0.16 0.527,0.288c0.23,0.132 0.454,0.236 0.493,0.236c0.046,0 0.24,0.108 0.466,0.26l0.39,0.262l0.202,-0.016c0.292,-0.028 0.346,-0.04 0.47,-0.126c0.174,-0.12 0.278,-0.138 0.416,-0.073c0.267,0.126 0.451,0.147 0.289,0.034c-0.243,-0.17 -0.267,-0.252 -0.126,-0.464c0.169,-0.257 0.187,-0.275 0.361,-0.364c0.28,-0.141 0.298,-0.175 0.39,-0.678c0.043,-0.245 0.1,-0.484 0.126,-0.533c0.07,-0.148 0.055,-0.242 -0.065,-0.356c-0.08509,-0.09004 -0.16205,-0.18742 -0.23,-0.291c-0.095,-0.147 -0.122,-0.218 -0.122,-0.325c0,-0.12 -0.013,-0.144 -0.101,-0.2c-0.0692,-0.04233 -0.14218,-0.07815 -0.218,-0.107c-0.132,-0.046 -0.337,-0.263 -0.31,-0.324c0.01187,-0.02744 0.0232,-0.05512 0.034,-0.083c0.025,-0.062 -0.224,-0.197 -0.47,-0.255c-0.244,-0.058 -0.241,-0.058 -0.198,-0.107c0.021,-0.028 0.02,-0.123 0.002,-0.3c-0.092,-0.84 -0.432,-1.43 -0.999,-1.727c-0.08529,-0.03921 -0.16554,-0.08857 -0.239,-0.147c-0.058,-0.089 -0.782,-0.365 -1.18,-0.447c-0.18566,-0.03908 -0.36979,-0.08511 -0.552,-0.138c-0.20057,-0.05296 -0.40432,-0.09305 -0.61,-0.12c-0.457,-0.043 -1.073,-0.147 -1.276,-0.212c-0.17565,-0.04848 -0.35352,-0.08852 -0.533,-0.12c-0.193,-0.036 -0.359,-0.076 -0.368,-0.091c-0.012,-0.018 -0.086,-0.016 -0.187,0.003c-0.117,0.021 -0.291,0.021 -0.567,-0.003c-0.39812,-0.02573 -0.79708,-0.03607 -1.196,-0.031c-0.674,0.003 -0.858,-0.006 -1.202,-0.061c-0.218,-0.03613 -0.43814,-0.05784 -0.659,-0.065c-0.337,-0.003 -1.33,-0.104 -1.153,-0.12c0.028,0 0.12,-0.017 0.205,-0.036c0.141,-0.03 0.15,-0.037 0.123,-0.098c-0.03,-0.065 -0.046,-0.067 -0.478,-0.064c-0.368,0 -0.454,0.009 -0.481,0.049c-0.031,0.04 -0.062,0.043 -0.197,0.018c-0.144,-0.03 -0.153,-0.037 -0.107,-0.073c0.049,-0.037 0.05,-0.046 0.01,-0.074c-0.02915,-0.01766 -0.06202,-0.02828 -0.096,-0.031c-0.04,0 -1.956,-0.19 -2.753,-0.273c-0.157,-0.018 -0.294,-0.036 -0.303,-0.049c-0.01,-0.009 0.006,-0.015 0.033,-0.015c0.03,0 0.052,-0.012 0.052,-0.028c0,-0.046 -0.156,-0.058 -0.37,-0.024c-0.15,0.021 -0.23,0.021 -0.28,-0.003c-0.058,-0.025 -0.04,-0.028 0.093,-0.015c0.29,0.03 0.168,-0.04 -0.139,-0.077c-0.165,-0.022 -0.337,-0.043 -0.38,-0.05c-0.04799,-0.00801 -0.09451,-0.02318 -0.138,-0.045c-0.03,-0.019 -0.368,-0.077 -0.748,-0.129c-0.31948,-0.04053 -0.63659,-0.09795 -0.95,-0.172c-0.497,-0.14 -0.954,-0.37 -1.217,-0.607l-0.138,-0.122l0.049,-0.117c0.07963,-0.22022 0.24581,-0.39833 0.46,-0.493c0.315,-0.154 0.46,-0.178 1.076,-0.197c0.56,-0.012 0.693,-0.036 0.628,-0.11c-0.03,-0.043 -0.472,-0.11 -0.692,-0.11c-0.138,0 -0.482,-0.068 -0.798,-0.16c-0.12972,-0.03829 -0.26488,-0.05484 -0.4,-0.049zM12.11,6.14c-0.02282,-0.00055 -0.04563,0.00146 -0.068,0.006c-0.18,0.03 -0.285,0.073 -0.377,0.15l-0.092,0.073l0.147,0.003c0.13116,0.01003 0.26014,-0.03784 0.353,-0.131c0.071,-0.065 0.084,-0.097 0.037,-0.1zM17.886,7.091c0.05534,0.00214 0.11,0.01293 0.162,0.032c0.07191,0.02493 0.14802,0.03546 0.224,0.031c0.03,-0.009 0.067,-0.003 0.08,0.019c0.015,0.027 -0.03,0.03 -0.184,0.015c-0.135,-0.015 -0.203,-0.013 -0.203,0.009c0,0.018 0.037,0.04 0.086,0.05c0.224,0.048 0.26,0.073 0.068,0.054c-0.12237,-0.01198 -0.24511,-0.01998 -0.368,-0.024c-0.16,0 -0.169,0.003 -0.178,0.08c-0.01,0.07 -0.03,0.085 -0.18,0.116c-0.206,0.04 -0.178,0.043 -0.332,-0.028c-0.138,-0.067 -0.442,-0.14 -0.819,-0.199c-0.14,-0.021 -0.21,-0.04 -0.162,-0.043c0.052,0 0.334,0.031 0.629,0.074c0.545,0.077 0.699,0.092 0.665,0.058c-0.1759,-0.04885 -0.35412,-0.0889 -0.534,-0.12l-0.515,-0.1l0.3,-0.004c0.264,-0.003 0.31,0.007 0.39,0.065c0.068,0.049 0.101,0.058 0.126,0.034c0.021,-0.022 0.113,-0.028 0.257,-0.02c0.193,0.016 0.245,0.01 0.353,-0.048c0.04105,-0.02584 0.08702,-0.04287 0.135,-0.05zM13.539,7.604c0.015,0 0.029,0.002 0.036,0.01c0.013,0.01 0,0.03 -0.024,0.046c-0.058,0.037 -0.083,0.037 -0.107,0.003c-0.014,-0.025 0.05,-0.057 0.095,-0.059zM18.526,7.694c0.006,-0.002 0.016,0.01 0.034,0.037c0.02469,0.02938 0.05983,0.04803 0.098,0.052c0.05,0 0.053,0.006 0.013,0.03c-0.01849,0.01292 -0.03915,0.0224 -0.061,0.028c-0.062,-0.006 -0.092,-0.043 -0.092,-0.098c0.001,-0.03 0.002,-0.047 0.008,-0.049zM14.575,7.874c-0.062,0 -0.104,0.053 -0.104,0.126c0,0.016 0.07,0.028 0.156,0.028c0.147,0 0.153,-0.003 0.116,-0.052c-0.06,-0.08 -0.098,-0.101 -0.168,-0.101zM20.765,9.705c0.021,-0.009 0.074,0.012 0.116,0.043c0.068,0.052 0.068,0.058 0.013,0.055c-0.086,0 -0.184,-0.076 -0.13,-0.098z"></path></g></g></svg>